<?xml version="1.0" encoding="UTF-8" standalone="no"?>
<!DOCTYPE svg PUBLIC "-//W3C//DTD SVG 1.1//EN"
 "http://www.w3.org/Graphics/SVG/1.1/DTD/svg11.dtd">
<!-- Generated by graphviz version 2.43.0 (0)
 -->
<!-- Title: sourcetree Pages: 1 -->
<svg width="313pt" height="116pt"
 viewBox="0.00 0.00 312.50 116.00" xmlns="http://www.w3.org/2000/svg" xmlns:xlink="http://www.w3.org/1999/xlink">
<g id="graph0" class="graph" transform="scale(1 1) rotate(0) translate(4 112)">
<title>sourcetree</title>
<polygon fill="white" stroke="transparent" points="-4,4 -4,-112 308.5,-112 308.5,4 -4,4"/>
<!-- mulle&#45;cosmopolitan -->
<g id="node1" class="node">
<title>mulle&#45;cosmopolitan</title>
<polygon fill="yellow" stroke="black" points="245.5,-108 90.5,-108 90.5,-72 245.5,-72 245.5,-108"/>
<text text-anchor="middle" x="168" y="-86.3" font-family="Times,serif" font-size="14.00">mulle&#45;cosmopolitan</text>
</g>
<!-- cosmopolitan&#45;craftinfo -->
<g id="node2" class="node">
<title>cosmopolitan&#45;craftinfo</title>
<g id="a_node2"><a xlink:href="https://unknown.com/" xlink:title="cosmopolitan&#45;craftinfo">
<polygon fill="lightgrey" stroke="black" points="176,-36 0,-36 0,0 176,0 176,-36"/>
<text text-anchor="middle" x="88" y="-14.3" font-family="Times,serif" font-size="14.00">cosmopolitan&#45;craftinfo</text>
</a>
</g>
</g>
<!-- mulle&#45;cosmopolitan&#45;&gt;cosmopolitan&#45;craftinfo -->
<g id="edge2" class="edge">
<title>mulle&#45;cosmopolitan&#45;&gt;cosmopolitan&#45;craftinfo</title>
<path fill="none" stroke="black" d="M148.22,-71.7C138.25,-62.97 125.99,-52.24 115.14,-42.75"/>
<polygon fill="black" stroke="black" points="117.38,-40.06 107.55,-36.1 112.77,-45.32 117.38,-40.06"/>
</g>
<!-- cosmopolitan -->
<g id="node3" class="node">
<title>cosmopolitan</title>
<g id="a_node3"><a xlink:href="https://github.com/jart/cosmopolitan" xlink:title="cosmopolitan">
<polygon fill="lightgrey" stroke="black" points="304.5,-36 193.5,-36 193.5,0 304.5,0 304.5,-36"/>
<text text-anchor="middle" x="249" y="-14.3" font-family="Times,serif" font-size="14.00">cosmopolitan</text>
</a>
</g>
</g>
<!-- mulle&#45;cosmopolitan&#45;&gt;cosmopolitan -->
<g id="edge1" class="edge">
<title>mulle&#45;cosmopolitan&#45;&gt;cosmopolitan</title>
<path fill="none" stroke="black" d="M188.02,-71.7C198.13,-62.97 210.54,-52.24 221.52,-42.75"/>
<polygon fill="black" stroke="black" points="223.93,-45.29 229.21,-36.1 219.35,-39.99 223.93,-45.29"/>
</g>
</g>
</svg>
