<?xml version="1.0" encoding="UTF-8" standalone="no"?>
<!DOCTYPE svg PUBLIC "-//W3C//DTD SVG 1.1//EN"
 "http://www.w3.org/Graphics/SVG/1.1/DTD/svg11.dtd">
<!-- Generated by graphviz version 2.43.0 (0)
 -->
<!-- Title: sourcetree Pages: 1 -->
<svg width="380pt" height="116pt"
 viewBox="0.00 0.00 379.50 116.00" xmlns="http://www.w3.org/2000/svg" xmlns:xlink="http://www.w3.org/1999/xlink">
<g id="graph0" class="graph" transform="scale(1 1) rotate(0) translate(4 112)">
<title>sourcetree</title>
<polygon fill="white" stroke="transparent" points="-4,4 -4,-112 375.5,-112 375.5,4 -4,4"/>
<!-- mulle&#45;cosmopolitan -->
<g id="node1" class="node">
<title>mulle&#45;cosmopolitan</title>
<polygon fill="yellow" stroke="black" points="230,-108 75,-108 75,-72 230,-72 230,-108"/>
<text text-anchor="middle" x="152.5" y="-86.3" font-family="Times,serif" font-size="14.00">mulle&#45;cosmopolitan</text>
</g>
<!-- cosmopolitan -->
<g id="node2" class="node">
<title>cosmopolitan</title>
<polygon fill="lightgrey" stroke="black" points="111,-36 0,-36 0,0 111,0 111,-36"/>
<text text-anchor="middle" x="55.5" y="-14.3" font-family="Times,serif" font-size="14.00">cosmopolitan</text>
</g>
<!-- mulle&#45;cosmopolitan&#45;&gt;cosmopolitan -->
<g id="edge1" class="edge">
<title>mulle&#45;cosmopolitan&#45;&gt;cosmopolitan</title>
<path fill="none" stroke="black" d="M128.52,-71.7C116.19,-62.8 100.98,-51.82 87.65,-42.2"/>
<polygon fill="black" stroke="black" points="89.36,-39.12 79.2,-36.1 85.26,-44.79 89.36,-39.12"/>
</g>
<!-- craftinfo/cosmopolitan&#45;craftinfo -->
<g id="node3" class="node">
<title>craftinfo/cosmopolitan&#45;craftinfo</title>
<polygon fill="lightgrey" stroke="black" points="371.5,-36 129.5,-36 129.5,0 371.5,0 371.5,-36"/>
<text text-anchor="middle" x="250.5" y="-14.3" font-family="Times,serif" font-size="14.00">craftinfo/cosmopolitan&#45;craftinfo</text>
</g>
<!-- mulle&#45;cosmopolitan&#45;&gt;craftinfo/cosmopolitan&#45;craftinfo -->
<g id="edge2" class="edge">
<title>mulle&#45;cosmopolitan&#45;&gt;craftinfo/cosmopolitan&#45;craftinfo</title>
<path fill="none" stroke="black" d="M176.47,-71.88C189.05,-62.89 204.63,-51.76 218.25,-42.03"/>
<polygon fill="black" stroke="black" points="220.33,-44.85 226.43,-36.19 216.26,-39.15 220.33,-44.85"/>
</g>
</g>
</svg>
